<svg id="Bek" xmlns="http://www.w3.org/2000/svg" viewBox="0 0 489.39983 608.65296">
    <defs>
        <style>
            .cls-1,.cls-11,.cls-12,.cls-3,.cls-5,.cls-9{fill:#fff;}.cls-1,.cls-12,.cls-2,.cls-8,.cls-9{stroke:#272425;}.cls-1,.cls-10,.cls-11,.cls-12,.cls-2,.cls-4,.cls-5,.cls-8,.cls-9{stroke-miterlimit:10;}.cls-1,.cls-4{stroke-width:5px;}.cls-2{fill:#272425;}.cls-4{fill:#6cbe54;stroke:#6cbe54;}.cls-5{stroke:#fff;stroke-width:7px;}.cls-6{fill:#6bbe54;}.cls-10,.cls-7,.cls-8{fill:none;}.cls-7{stroke:#010101;stroke-linecap:round;stroke-linejoin:round;stroke-width:0.5px;}.cls-11,.cls-8,.cls-9{stroke-width:8px;}.cls-10{stroke:#8f58a4;stroke-width:9px;}.cls-11{stroke:#f05667;}.cls-12{stroke-width:4px;}
        </style>
    </defs>
    <path class="cls-1"
          d="M893.8014,833.542c-3.34546.8439-59.64558-14.46684-86.83119-28.66243-39.84409-20.76595-70.345-36.16711-83.39532-64.287-12.116-26.07045,2.381-240.9385,4.61131-269.48038.03014-.57535.18084-2.33339.36167-4.73071,1.65766-21.79967,12.2064-41.93718,29.23508-54.24345,9.37331-6.74447,20.64539-12.33822,33.0929-13.29715a72.2648,72.2648,0,0,1,50.15172,15.43876c1.507,1.24661,3.10434,2.55715,4.73186,3.86769,11.3625,9.0459,31.164,16.2059,40.56743,4.9225,12.62835-15.11912,25.04572-36.40735,71.55059-38.35718,50.51339.57536,65.85427,31.54878,71.9424,38.93254,9.37331,11.31537,32.00789,3.548,43.34025-5.49786,1.62752-1.31054,3.2249-2.62108,4.73186-3.86769a72.2648,72.2648,0,0,1,50.15172-15.43876c12.44751.95893,23.71959,6.55268,33.0929,13.29715,17.02868,12.30627,27.57742,32.44378,29.23507,54.24345.24112,3.00464.42195,5.21018.45209,5.84947,2.86323,39.63575,16.51631,236.15235,4.52089,262.55488-13.44211,29.63091-43.55122,46.15647-83.39531,68.17988-27.18561,15.05519-52.382,26.53038-73.17811,31.13324-20.73581,5.45521-56.6618,7.49026-76.16189,7.46012-39.27145-.03014-73.99187-8.65-73.99187-8.74038"
          transform="translate(-714.69534 -236.15641)"/>
    <rect class="cls-2" x="876.17177" y="446.59234" width="166.5571" height="288.06152" rx="26.11459"
          transform="translate(-309.55426 -626.4114) rotate(28.91272)"/>
    <rect class="cls-3" x="893.03441" y="463.92372" width="139.33152" height="235.96583" rx="15.86993"
          transform="matrix(0.86603, 0.5, -0.5, 0.86603, -294.76466, -639.54579)"/>
    <path class="cls-4"
          d="M862.32953,581.881H996.742a0,0,0,0,1,0,0V683.00049A13.96653,13.96653,0,0,1,982.77552,696.967H876.29606a13.96653,13.96653,0,0,1-13.96653-13.96653V581.881a0,0,0,0,1,0,0Z"
          transform="translate(-270.44915 -615.25773) rotate(30)"/>
    <path class="cls-4"
          d="M957.30762,472.707a43.72083,43.72083,0,0,1,11.62793,4.55274c5.91992,3.28906,8.86328,6.96777,9.7539,12.09472.87891,4.03028-.00586,8.98828-3.07129,14.50586-3.75976,6.76758-9.98339,11.07617-16.3164,11.09863l-.11621.209c3.42968,4.085,5.46679,12.4375-.31739,22.84765-3.35449,6.03907-7.46386,9.75-11.68554,11.9004-5.68555,2.70019-12.01172,1.91015-19.49707-2.24805a52.16337,52.16337,0,0,1-8.72266-5.93652ZM928.584,538.35742a23.85606,23.85606,0,0,0,4.73536,3.17578c6.124,3.40235,13.67968,3.1045,19.34765-7.09863,5.32129-9.57812,2.14356-16.52051-4.32031-20.11133l-4.89844-2.72168Zm18.68067-33.627,5.375,2.98633c6.25976,3.47754,12.71094.52148,16.4707-6.2461,4.56836-8.22461,2.27832-13.71972-3.709-17.0459a19.34591,19.34591,0,0,0-5.58594-2.28613Z"
          transform="translate(-714.69534 -236.15641)"/>
    <path class="cls-4"
          d="M998.09082,542.91211l-17.82617-9.9043-14.05371,25.29883,19.86718,11.03711-4.22265,7.59961-25.78711-14.32617,38.98144-70.169,24.76661,13.75879-4.22168,7.60059-18.84668-10.46973L984.42871,525.5127l17.82617,9.90332Z"
          transform="translate(-714.69534 -236.15641)"/>
    <path class="cls-4"
          d="M1028.86719,511.23535l5.91992,3.28906-18.79688,33.835.20411.11328c2.72851-2.02637,5.34179-3.84473,7.77148-5.49219l28.64844-18.55274,7.34863,4.082-33.14355,20.55175-4.5459,50.335-7.00782-3.89257,4.03809-42.85157-8.63379,5.28516-14.86426,26.75586-5.91992-3.28906Z"
          transform="translate(-714.69534 -236.15641)"/>
    <path class="cls-5"
          d="M865.28027,631.80566c.74317,3.32618,2.60645,6.78809,5.65137,8.48047,4.5166,2.50879,9.57813-.38379,13.082-6.69238,3.2461-5.84375,3.27344-10.19727.459-16.00977-3.57325-6.71972-4.08789-13.92382.80761-22.73632,5.41114-9.73926,13.84571-14.52149,20.49414-10.82715a11.84737,11.84737,0,0,1,5.86231,7.26172l-4.876,5.90918a10.80653,10.80653,0,0,0-4.84863-6.57715c-4.66895-2.59473-9.28027,1.52051-11.65039,5.78808-3.2461,5.84278-2.76172,9.875.10254,15.83594,3.51855,7.2959,3.62793,14.0332-1.47364,23.21582-5.35839,9.64746-13.90429,15.82324-21.97363,11.34082a13.873,13.873,0,0,1-6.51465-8.83789Z"
          transform="translate(-714.69534 -236.15641)"/>
    <path class="cls-5"
          d="M932.66406,640.35059c-11.95508,21.51953-25.44824,28.9541-34.17773,24.10449-9.03516-5.01953-8.26758-21.34473,2.24414-40.26758,11.02734-19.84961,24.99219-29.08594,34.127-24.01074C944.19629,605.36523,942.96973,621.79883,932.66406,640.35059ZM905.55371,626.624c-7.4209,13.35743-10.10937,27.52246-3.15625,31.38575,7.00391,3.89062,17.50879-5.69043,25.39258-19.88282,6.90527-12.42871,10.56543-27.38867,3.20605-31.47754C923.6875,602.58984,913.17969,612.89551,905.55371,626.624Z"
          transform="translate(-714.69534 -236.15641)"/>
    <path class="cls-5"
          d="M955.66113,613.06836,974.085,623.30469l-3.76172,6.77051L956.31543,622.293l-11.543,20.77832,12.94238,7.18945-3.71,6.67871L941.0625,649.75l-15.7168,28.291-4.416-2.45313Z"
          transform="translate(-714.69534 -236.15641)"/>
    <path class="cls-5"
          d="M983.31641,637.415l-10.4043-5.78027,3.81348-6.86329,25.32617,14.06836-3.81348,6.86426-10.45605-5.80859-30.918,55.65527-4.46582-2.48144Z"
          transform="translate(-714.69534 -236.15641)"/>
    <path class="cls-6"
          d="M895.8064,822.00215C908.495,793.4,735.556,729.35408,720.00414,614.0413c-3.34546-24.59363.93431-48.22281.99459-48.22281.12056,0-1.71793,161.72724-1.71793,161.72724h0s5.3045,18.14383,13.14071,28.75284c9.19247,12.50779,22.75514,15.64228,31.76677,20.4947,56.42069,30.22967,98.16159,53.82855,120.3742,52.89423C892.037,829.356,894.32958,825.31746,895.8064,822.00215Z"
          transform="translate(-714.69534 -236.15641)"/>
    <path class="cls-6"
          d="M1023.59684,825.55858c-12.68863-28.60215,159.87052-93.30222,175.42237-208.615,3.34546-24.59363-3.51624-43.62041-3.93-48.38241-.01043-.1201,6.36314,156.35,6.36314,156.35l-.90793,5.55806c-1.26585,2.65226-9.41917,15.01037-17.0444,25.19744-9.313,12.41737-22.27177,21.126-27.622,23.86927-56.95807,29.20453-102.594,55.06441-124.80665,54.1301C1023.59684,833.33451,1025.07366,828.8739,1023.59684,825.55858Z"
          transform="translate(-714.69534 -236.15641)"/>
    <line class="cls-7" x1="173.81736" y1="595.88211" x2="173.81736" y2="595.91225"/>
    <line class="cls-7" x1="140.63404" y1="353.50223" x2="140.9053" y2="355.43114"/>
    <line class="cls-8" x1="179.41757" y1="597.21809" x2="188.42966" y2="487.89653"/>
    <circle class="cls-9" cx="244.75497" cy="62.84359" r="58.84359"/>
    <path class="cls-8" d="M1027.28765,835.77871,1017,730c-4.70837-64.03383,30.38881-112.41782,30.38881-112.41782"
          transform="translate(-714.69534 -236.15641)"/>
    <rect class="cls-8" x="874.07081" y="446.02637" width="168.7096" height="288.06152" rx="31.27853"
          transform="translate(-309.95562 -625.98652) rotate(28.91272)"/>
    <path class="cls-10" d="M889,831.5" transform="translate(-714.69534 -236.15641)"/>
    <path class="cls-11" d="M1053.67646,624.85944" transform="translate(-714.69534 -236.15641)"/>
    <rect class="cls-12" x="877.44595" y="694.99243" width="34.61584" height="19.44621" rx="9.72309"
          transform="translate(-262.45717 -580.91137) rotate(28.91272)"/>
    <path class="cls-1"
          d="M1062.85892,564.24149h14.722a4.916,4.916,0,0,1,4.916,4.916v0a4.916,4.916,0,0,1-4.916,4.916h-14.722a4.916,4.916,0,0,1-4.916-4.916v0A4.916,4.916,0,0,1,1062.85892,564.24149Z"
          transform="translate(1371.16712 -328.64924) rotate(118.91272)"/>
    <path class="cls-9"
          d="M1046.5,661s27.5-25.2826,30-28.1413,8.09477-42.946-22.73129-34.67116S1017.5,636.44845,1023,643.97423,1039.5,662.5,1046.5,661Z"
          transform="translate(-714.69534 -236.15641)"/>
    <path class="cls-9"
          d="M879.96034,503.4856s-24.92476,18.11195-19.58519,34.17345,19.81751,17.6377,34.72363,7.31988S923.3571,488.97074,879.96034,503.4856Z"
          transform="translate(-714.69534 -236.15641)"/>
    <path class="cls-9"
          d="M854.10682,549.14722s-25.91717,19.0462-20.26783,36.06991,20.7627,18.76235,36.26483,7.91576S899.31442,533.99779,854.10682,549.14722Z"
          transform="translate(-714.69534 -236.15641)"/>
    <path class="cls-9"
          d="M828.02678,595.05971s-23.02764,17.28375-17.84352,32.95617,18.71235,17.38607,32.49037,7.54895S868.33466,581.50335,828.02678,595.05971Z"
          transform="translate(-714.69534 -236.15641)"/>
    <path class="cls-9" d="M1044.5,661s-19.60215.72924-26.38145,34.39591" transform="translate(-714.69534 -236.15641)"/>
    <line class="cls-9" x1="313.35946" y1="419.74123" x2="317.28174" y2="428.34359"/>
    <path class="cls-8"
          d="M893.69666,832.792c-3.34546.8439-59.64559-14.46684-86.83119-28.66243-39.8441-20.76595-70.345-36.16711-83.39532-64.287-12.116-26.07045,2.381-240.9385,4.61131-269.48038.03014-.57535.18083-2.33339.36167-4.73071,1.65766-21.79967,12.2064-41.93718,29.23507-54.24345,9.37331-6.74447,20.64539-12.33822,33.0929-13.29715a72.26477,72.26477,0,0,1,50.15172,15.43876c1.507,1.24661,3.10435,2.55715,4.73187,3.86769,11.36249,9.0459,31.164,16.2059,40.56743,4.9225,12.62835-15.11912,25.04572-36.40735,71.55059-38.35718,50.51339.57536,65.85427,31.54878,71.9424,38.93254,9.37331,11.31537,32.00788,3.548,43.34024-5.49786,1.62752-1.31054,3.2249-2.62108,4.73187-3.86769a72.26476,72.26476,0,0,1,50.15171-15.43876c12.44752.95893,23.7196,6.55268,33.0929,13.29715,17.02868,12.30627,27.57742,32.44378,29.23508,54.24345.24111,3.00464.42195,5.21018.45209,5.84947,2.86323,39.63575,16.51631,236.15235,4.52089,262.55488-13.44211,29.63091-43.55122,46.15647-83.39532,68.17988-27.1856,15.05519-52.382,26.53038-73.1781,31.13324-20.73581,5.45521-56.6618,7.49026-76.1619,7.46012-39.27145-.03014-73.99187-8.65-73.99187-8.74038"
          transform="translate(-714.69534 -236.15641)"/>
    <circle class="cls-9" cx="81.9833" cy="92.60516" r="51.23843"/>
    <circle class="cls-9" cx="407.11652" cy="92.60516" r="51.23843"/>
</svg>